<?xml version="1.0" encoding="UTF-8" standalone="no"?>
<!-- Created with Inkscape (http://www.inkscape.org/) -->

<svg
   xmlns:dc="http://purl.org/dc/elements/1.1/"
   xmlns:cc="http://creativecommons.org/ns#"
   xmlns:rdf="http://www.w3.org/1999/02/22-rdf-syntax-ns#"
   xmlns:svg="http://www.w3.org/2000/svg"
   xmlns="http://www.w3.org/2000/svg"
   xmlns:sodipodi="http://sodipodi.sourceforge.net/DTD/sodipodi-0.dtd"
   xmlns:inkscape="http://www.inkscape.org/namespaces/inkscape"
   width="171"
   height="256"
   viewBox="0 0 171 256"
   id="svg6226"
   version="1.1"
   inkscape:version="0.91 r13725"
   sodipodi:docname="bingo-pure.svg">
  <defs
     id="defs6228" />
  <sodipodi:namedview
     id="base"
     pagecolor="#ffffff"
     bordercolor="#666666"
     borderopacity="1.0"
     inkscape:pageopacity="0.0"
     inkscape:pageshadow="2"
     inkscape:zoom="2.8"
     inkscape:cx="44.46645"
     inkscape:cy="126.83617"
     inkscape:document-units="px"
     inkscape:current-layer="layer1"
     showgrid="false"
     units="px"
     inkscape:window-width="1584"
     inkscape:window-height="1028"
     inkscape:window-x="2004"
     inkscape:window-y="24"
     inkscape:window-maximized="0" />
  <metadata
     id="metadata6231">
    <rdf:RDF>
      <cc:Work
         rdf:about="">
        <dc:format>image/svg+xml</dc:format>
        <dc:type
           rdf:resource="http://purl.org/dc/dcmitype/StillImage" />
        <dc:title></dc:title>
      </cc:Work>
    </rdf:RDF>
  </metadata>
  <g
     inkscape:label="Layer 1"
     inkscape:groupmode="layer"
     id="layer1"
     transform="translate(0,-796.36216)">
    <path
       style="fill:#3067ba;fill-opacity:1;stroke:#000000;stroke-opacity:1"
       d="m 12.99676,1051.1493 c -3.4430004,-0.5797 -7.1250306,-2.6492 -9.1060406,-5.1181 -1.02274,-1.2746 -2.21172,-3.532 -2.69245,-5.112 -0.3954,-1.2995 -0.41077,-5.6605 -0.41077,-116.55001 0,-110.88949 0.0154,-115.25052 0.41077,-116.55 1.22741,-4.03393 4.01128,-7.21932 7.86282,-8.99687 3.4286506,-1.58238 -2.67824,-1.46563 76.6639146,-1.46563 80.241876,0 73.314996,-0.15324 77.123876,1.70616 2.88619,1.40896 4.98734,3.47688 6.37198,6.27121 l 0.99164,2.0012 0,117.03393 0,117.03401 -0.99164,2.0012 c -1.38464,2.7943 -3.48579,4.8622 -6.37198,6.2712 -3.81136,1.8606 3.13696,1.7093 -77.170646,1.6797 -39.388654,-0.015 -72.095314,-0.1072 -72.681474,-0.206 z"
       id="path7473" />
    <path
       style="fill:#ffffff;fill-opacity:1;stroke:#000000;stroke-opacity:1"
       d="m 81.675,1012.4567 0,-21.82502 -35.4375,0 -35.4375,0 0,21.82502 0,21.825 35.4375,0 35.4375,0 0,-21.825 z"
       id="path7471" />
    <path
       style="fill:#000000"
       d="m 25.65,1012.3442 0,-6.8625 4.05,0 4.05,0 0,1.2375 0,1.2375 -2.5875,0 -2.5875,0 0,1.6875 0,1.6875 2.3625,0 2.3625,0 0,1.2375 0,1.2375 -2.3625,0 -2.3625,0 0,2.7 0,2.7 -1.4625,0 -1.4625,0 0,-6.8625 z"
       id="path7469" />
    <path
       style="fill:#000000"
       d="m 36,1012.4705 0,-6.7362 1.01235,-0.1518 c 0.55679,-0.083 2.05023,-0.1131 3.31875,-0.066 3.65165,0.1361 5.1189,1.2083 5.1189,3.7405 0,1.4307 -0.53277,2.4728 -1.61421,3.1576 -0.68561,0.4341 -0.68975,0.4472 -0.21962,0.6988 0.26354,0.1411 0.62077,0.5319 0.79384,0.8686 0.25436,0.4948 1.48999,4.7593 1.48999,5.1424 0,0.057 -0.68344,0.073 -1.51875,0.036 l -1.51875,-0.067 -0.49998,-1.9125 c -0.27499,-1.0519 -0.61517,-2.1291 -0.75597,-2.3939 -0.31148,-0.5858 -1.12433,-0.9811 -2.01714,-0.9811 l -0.66441,0 0,2.7 0,2.7 -1.4625,0 -1.4625,0 0,-6.7362 z"
       id="path7467" />
    <path
       style="fill:#ffffff;fill-opacity:1"
       d="m 41.97272,1011.0045 c 0.67459,-0.6746 0.73671,-1.8702 0.13574,-2.6123 -0.33021,-0.4078 -0.70325,-0.5352 -1.8,-0.6145 l -1.38346,-0.1001 0,1.9396 0,1.9395 1.24772,0 c 1.02475,0 1.34643,-0.099 1.8,-0.5522 z"
       id="path7465" />
    <path
       style="fill:#000000"
       d="m 47.7,1012.3442 0,-6.8625 4.1625,0 4.1625,0 0,1.2304 0,1.2303 -2.64375,0.063 -2.64375,0.063 -0.067,1.4063 -0.067,1.4062 2.48573,0 2.48574,0 0,1.2299 0,1.2299 -2.41875,0.064 -2.41875,0.064 -0.0661,1.6313 -0.0661,1.6312 2.82236,0 2.82235,0 0,1.2375 0,1.2375 -4.275,0 -4.275,0 0,-6.8625 z"
       id="path7463" />
    <path
       style="fill:#000000"
       d="m 58.275,1012.3442 0,-6.8625 4.1625,0 4.1625,0 0,1.2375 0,1.2375 -2.5875,0 -2.5875,0 0,1.4625 0,1.4625 2.3625,0 2.3625,0 0,1.2375 0,1.2375 -2.3625,0 -2.3625,0 0,1.6875 0,1.6875 2.7,0 2.7,0 0,1.2375 0,1.2375 -4.275,0 -4.275,0 0,-6.8625 z"
       id="path7461" />
    <path
       style="fill:#ffffff;fill-opacity:1;stroke:#000000;stroke-opacity:1"
       d="m 160.875,1012.4567 0,-21.82502 -35.55,0 -35.549996,0 0,21.82502 0,21.825 35.549996,0 35.55,0 0,-21.825 z"
       id="path7459" />
    <path
       style="fill:#000000"
       d="m 122.99119,1019.1149 c -4.5067,-1.6763 -5.51061,-9.0956 -1.67498,-12.3788 2.71126,-2.3207 7.19716,-1.7751 9.09252,1.1059 0.96867,1.4724 1.29694,2.8791 1.17043,5.0156 -0.16701,2.8202 -1.35165,4.8703 -3.44166,5.9561 -1.16159,0.6035 -3.9024,0.7639 -5.14631,0.3012 z"
       id="path7457" />
    <path
       style="fill:#ffffff;fill-opacity:1"
       d="m 127.09186,1016.3876 c 0.96031,-0.8081 1.45259,-2.4429 1.34123,-4.4541 -0.14928,-2.6961 -1.26222,-4.2001 -3.10809,-4.2001 -1.96322,0 -3.20152,1.7762 -3.198,4.5873 0.004,2.9622 1.15835,4.636 3.198,4.636 0.8383,0 1.24689,-0.1316 1.76686,-0.5691 z"
       id="path7455" />
    <path
       style="fill:#ffffff;fill-opacity:1;stroke:#000000;stroke-opacity:1"
       d="m 81.675,963.85668 0,-21.825 -35.4375,0 -35.4375,0 0,21.825 0,21.825 35.4375,0 35.4375,0 0,-21.825 z"
       id="path7453" />
    <path
       style="fill:#000000"
       d="m 25.65,963.74418 0,-6.8625 4.05,0 4.05,0 0,1.2375 0,1.2375 -2.5875,0 -2.5875,0 0,1.575 0,1.575 2.3625,0 2.3625,0 0,1.2375 0,1.2375 -2.3625,0 -2.3625,0 0,2.8125 0,2.8125 -1.4625,0 -1.4625,0 0,-6.8625 z"
       id="path7451" />
    <path
       style="fill:#000000"
       d="m 36,963.77118 0,-6.8357 2.13249,-0.1599 c 4.96935,-0.3726 7.319,0.8683 7.31667,3.8639 -9e-4,1.2377 -0.52438,2.2519 -1.55568,3.0144 -0.66491,0.4916 -0.67134,0.5137 -0.23716,0.8178 0.24543,0.1719 0.59881,0.6076 0.78527,0.9682 0.30134,0.5827 1.45639,4.551 1.45784,5.0086 2.3e-4,0.099 -0.67463,0.1491 -1.49988,0.1125 l -1.50045,-0.067 -0.62092,-2.2461 c -0.70276,-2.5422 -1.10953,-3.0414 -2.47811,-3.0414 l -0.87507,0 0,2.7 0,2.7 -1.4625,0 -1.4625,0 0,-6.8358 z"
       id="path7449" />
    <path
       style="fill:#ffffff;fill-opacity:1"
       d="m 41.96423,962.28028 c 1.55242,-1.4584 -0.13326,-3.7509 -2.39311,-3.2545 l -0.64612,0.1419 0,1.9225 0,1.9225 1.23923,-0.1028 c 0.89355,-0.074 1.39565,-0.2497 1.8,-0.6296 z"
       id="path7447" />
    <path
       style="fill:#000000"
       d="m 47.7,963.74438 0,-6.8625 4.1625,0 4.1625,0 0,1.2375 0,1.2375 -2.71074,0 -2.71073,0 0.067,1.4063 0.067,1.4062 2.41875,0.064 2.41875,0.064 0,1.2299 0,1.2299 -2.48486,0 -2.48486,0 0.0661,1.6313 0.0661,1.6312 2.75625,0.063 2.75625,0.063 0,1.2306 0,1.2306 -4.275,0 -4.275,0 0,-6.8625 z"
       id="path7445" />
    <path
       style="fill:#000000"
       d="m 58.275,963.74438 0,-6.8625 4.1625,0 4.1625,0 0,1.2375 0,1.2375 -2.5875,0 -2.5875,0 0,1.4625 0,1.4625 2.3625,0 2.3625,0 0,1.2375 0,1.2375 -2.3625,0 -2.3625,0 0,1.6875 0,1.6875 2.7,0 2.7,0 0,1.2375 0,1.2375 -4.275,0 -4.275,0 0,-6.8625 z"
       id="path7443" />
    <path
       style="fill:#ffffff;fill-opacity:1;stroke:#000000;stroke-opacity:1"
       d="m 160.81987,963.80038 0.0574,-21.76871 -35.55112,0 -35.551116,0 0,21.82571 0,21.8257 35.493746,-0.057 35.49375,-0.057 0.0574,-21.7688 z"
       id="path7441" />
    <path
       style="fill:#000000"
       d="m 104.625,963.74438 0,-6.8625 4.05,0 4.05,0 0,1.2375 0,1.2375 -2.5875,0 -2.5875,0 0,1.575 0,1.575 2.475,0 2.475,0 0,1.2299 0,1.2299 -2.41875,0.064 -2.41875,0.064 -0.0632,2.7563 -0.0632,2.7562 -1.45558,0 -1.45557,0 0,-6.8625 z"
       id="path7439" />
    <path
       style="fill:#000000"
       d="m 115.2,963.77138 0,-6.8357 2.08125,-0.1546 c 4.67735,-0.3476 7.05745,0.7655 7.31248,3.4197 0.1297,1.3497 -0.53742,2.8282 -1.53132,3.3936 -0.64764,0.3685 -0.86633,0.7128 -0.45273,0.7128 0.45643,0 1.16239,1.4 1.67859,3.3289 0.29854,1.1155 0.61166,2.2452 0.69582,2.5104 0.14753,0.4648 0.0978,0.4797 -1.38428,0.4151 l -1.53731,-0.067 -0.26685,-0.9 c -0.14677,-0.495 -0.42919,-1.4861 -0.62761,-2.2026 -0.46029,-1.6619 -0.97318,-2.1849 -2.14304,-2.1849 l -0.9,0 0,2.7 0,2.7 -1.4625,0 -1.4625,0 0,-6.8357 z"
       id="path7437" />
    <path
       style="fill:#ffffff;fill-opacity:1"
       d="m 120.75654,962.51708 c 0.90313,-0.5507 1.20719,-1.7495 0.65679,-2.5896 -0.41437,-0.6324 -1.8587,-1.1053 -2.7174,-0.8898 -0.5545,0.1391 -0.57093,0.1976 -0.57093,2.0314 l 0,1.8881 0.95625,-9e-4 c 0.5505,-5e-4 1.26135,-0.1869 1.67529,-0.4393 z"
       id="path7435" />
    <path
       style="fill:#000000"
       d="m 126.9,963.74468 0,-6.8625 4.05,0 4.05,0 0,1.2375 0,1.2375 -2.5875,0 -2.5875,0 0,1.4625 0,1.4625 2.475,0 2.475,0 0,1.2375 0,1.2375 -2.475,0 -2.475,0 0,1.6875 0,1.6875 2.7,0 2.7,0 0,1.2375 0,1.2375 -4.1625,0 -4.1625,0 0,-6.8625 z"
       id="path7433" />
    <path
       style="fill:#000000"
       d="m 137.475,963.74468 0,-6.8625 4.05,0 4.05,0 0,1.2375 0,1.2375 -2.5875,0 -2.5875,0 0,1.4625 0,1.4625 2.475,0 2.475,0 0,1.2375 0,1.2375 -2.475,0 -2.475,0 0,1.6875 0,1.6875 2.8125,0 2.8125,0 0,1.2375 0,1.2375 -4.275,0 -4.275,0 0,-6.8625 z"
       id="path7431" />
    <path
       style="fill:#ffffff;fill-opacity:1;stroke:#000000;stroke-opacity:1"
       d="m 81.675,914.13217 0,-21.82501 -35.4375,0 -35.4375,0 0,21.82501 0,21.82499 35.4375,0 35.4375,0 0,-21.82499 z"
       id="path7429" />
    <path
       style="fill:#000000"
       d="m 43.9875,920.83103 c -2.35702,-0.84017 -3.90152,-3.10615 -4.1108,-6.03109 -0.30247,-4.22743 2.09797,-7.47233 5.7743,-7.80569 3.52853,-0.31995 6.15112,1.82648 6.81136,5.57469 0.46789,2.65626 -0.6076,5.94895 -2.38619,7.30555 -1.45739,1.1116 -4.36998,1.56918 -6.08867,0.95654 z"
       id="path7427" />
    <path
       style="fill:#ffffff;fill-opacity:1"
       d="m 48.14608,917.78842 c 1.29045,-1.29139 1.66441,-3.42902 0.99451,-5.68482 -0.50402,-1.69722 -1.53777,-2.69643 -2.78963,-2.69643 -1.22249,0 -2.07987,0.52245 -2.736,1.66723 -0.44604,0.77821 -0.52746,1.23285 -0.52746,2.94527 0,3.17279 1.00729,4.60975 3.23272,4.61165 0.83625,6.8e-4 1.10838,-0.12491 1.82586,-0.8429 z"
       id="path7425" />
    <path
       style="fill:#ffffff;fill-opacity:1;stroke:#000000;stroke-opacity:1"
       d="m 160.875,914.13209 0,-21.82501 -35.55,0 -35.549996,0 0,21.82501 0,21.82499 35.549996,0 35.55,0 0,-21.82499 z"
       id="path7423" />
    <path
       style="fill:#000000"
       d="m 122.99119,920.79025 c -2.8415,-1.05691 -4.43795,-4.3092 -3.93185,-8.00993 0.50955,-3.7259 3.38061,-6.11114 6.96466,-5.78615 2.63127,0.2386 4.74073,2.09025 5.39438,4.73509 0.33774,1.36661 0.14971,4.47023 -0.34014,5.61409 -0.49292,1.15105 -1.81466,2.57079 -2.92539,3.14231 -1.17917,0.60672 -3.9153,0.76818 -5.16166,0.30459 z"
       id="path7421" />
    <path
       style="fill:#ffffff;fill-opacity:1"
       d="m 127.23984,917.88725 c 0.93639,-0.93639 1.30485,-2.26948 1.1916,-4.3112 -0.14764,-2.66163 -1.27001,-4.16728 -3.10644,-4.16728 -1.96322,0 -3.20152,1.77624 -3.198,4.58728 0.004,2.98678 1.15556,4.63604 3.23776,4.63604 0.97937,0 1.22966,-0.0994 1.87508,-0.74484 z"
       id="path7419" />
    <path
       style="fill:#ffffff;fill-opacity:1;stroke:#000000;stroke-opacity:1"
       d="m 81.61986,864.91334 0.0574,-21.88125 -35.43861,0 -35.43862,0 0,21.9382 0,21.93819 35.38125,-0.0569 35.38125,-0.057 0.0574,-21.88125 z"
       id="path7417" />
    <path
       style="fill:#000000"
       d="m 40.725,864.84764 0,-6.98447 1.72959,0.0657 1.72958,0.0657 1.60852,2.93952 c 0.88469,1.61673 1.94738,3.69236 2.36154,4.6125 0.41416,0.92014 0.81045,1.74407 0.88064,1.83096 0.0702,0.0869 0.0967,-2.01927 0.0589,-4.68035 l -0.0687,-4.83833 1.30624,0.0679 1.30625,0.0679 0,6.8625 0,6.8625 -1.49845,0.0661 -1.49845,0.0661 -1.91721,-3.55357 c -1.05446,-1.95446 -2.22373,-4.23701 -2.59839,-5.07232 -0.37465,-0.83531 -0.71073,-1.51879 -0.74684,-1.51885 -0.0361,-5e-5 -0.0306,2.27807 0.0123,5.0625 l 0.078,5.0626 -1.3717,0 -1.3717,0 0,-6.98446 z"
       id="path7415" />
    <path
       style="fill:#ffffff;fill-opacity:1;stroke:#000000;stroke-opacity:1"
       d="m 160.7625,864.9696 0,-21.825 -35.4375,0 -35.437496,0 -0.058,21.6 c -0.0319,11.88 -0.01,21.72688 0.0495,21.88195 0.0856,0.22461 7.30351,0.27037 35.495516,0.225 l 35.38804,-0.057 0,-21.825 z"
       id="path7413" />
    <path
       style="fill:#000000"
       d="m 119.80629,871.55956 c -0.0623,-0.16233 -0.0864,-3.28086 -0.0535,-6.93006 l 0.0597,-6.6349 1.71245,-0.0652 1.71245,-0.0652 1.75723,3.20973 c 0.96648,1.76535 2.086,3.96579 2.48782,4.88987 l 0.73059,1.68015 -0.12828,-4.88098 -0.12828,-4.88097 1.38426,0 1.38426,0 0,6.98528 0,6.98528 -1.51462,-0.0665 -1.51463,-0.0665 -0.86855,-1.575 c -0.4777,-0.86625 -1.67396,-3.14437 -2.65836,-5.0625 l -1.78982,-3.4875 0.0667,5.0625 0.0667,5.0625 -1.29647,0.0676 c -0.91284,0.0476 -1.32999,-0.0198 -1.40974,-0.2276 z"
       id="path7411" />
    <path
       style="fill:#feffff;fill-opacity:1"
       d="m 65.04767,833.54727 c 0.42066,-0.14268 1.03859,-0.44999 1.3732,-0.68293 0.60726,-0.42274 0.60904,-0.42248 0.98212,0.14692 0.32347,0.49368 0.53678,0.57043 1.58538,0.57043 l 1.21163,0 0,-3.2625 0,-3.2625 0.9,0 0.9,0 0,-1.35 0,-1.35 -3.9375,0 -3.9375,0 0,1.35 0,1.35 0.7875,0 c 0.60464,0 0.7875,0.0929 0.7875,0.39993 0,0.72466 -0.65742,1.40007 -1.36276,1.40007 -1.38439,0 -1.924,-1.27945 -1.73945,-4.12432 0.16794,-2.58893 1.03517,-3.64771 2.52409,-3.08162 0.50326,0.19134 0.57812,0.35163 0.57812,1.23787 l 0,1.01807 2.25,0 2.25,0 0,-3.375 0,-3.375 -2.1375,0 c -1.19838,0 -2.1375,0.0938 -2.1375,0.21352 0,0.11743 -0.37969,0.0508 -0.84375,-0.14817 -1.16694,-0.50023 -4.2216,-0.47027 -5.32263,0.0522 -1.97851,0.93887 -2.26392,2.00002 -2.26795,8.43245 -0.003,4.71376 0.0302,5.13479 0.48191,6.112 0.7113,1.53893 1.62155,1.93825 4.48759,1.96866 1.00247,0.0106 2.16685,-0.0974 2.5875,-0.24008 z"
       id="path7409" />
    <path
       style="fill:#feffff;fill-opacity:1"
       d="m 84.035284,833.12287 c 0.86096,-0.4433 1.2376,-0.81992 1.6809,-1.68078 0.54117,-1.05094 0.57538,-1.33121 0.64827,-5.31203 0.10614,-5.79594 -0.32217,-7.51542 -2.13586,-8.57467 -0.98095,-0.57291 -3.949084,-0.87513 -6.140264,-0.62522 -2.40004,0.27373 -3.42225,0.81972 -4.09587,2.18774 -0.49602,1.00735 -0.53461,1.3752 -0.60249,5.74395 -0.0821,5.28214 0.13345,6.58009 1.27408,7.67289 1.04505,1.00122 2.25537,1.27066 5.44255,1.21164 2.519034,-0.0466 2.937214,-0.11302 3.928684,-0.62352 z"
       id="path7407" />
    <path
       style="fill:#3067ba;fill-opacity:1"
       d="m 79.15261,828.84362 c -0.2117,-0.12341 -0.48957,-0.60127 -0.6175,-1.06191 -0.31094,-1.11959 -0.27571,-4.24517 0.0588,-5.22019 0.34985,-1.01961 1.21966,-1.36923 2.05111,-0.82445 0.57577,0.37726 0.57994,0.40181 0.57994,3.4123 0,2.73232 -0.0445,3.07684 -0.45,3.48232 -0.491,0.491 -1.02421,0.56065 -1.62239,0.21193 z"
       id="path7405" />
    <path
       style="fill:#feffff;fill-opacity:1"
       d="m 104.57349,833.46364 c 2.38065,-0.70698 3.41341,-2.24477 3.42157,-5.0948 0.007,-2.54106 0.11841,-2.43715 -2.60663,-2.43715 l -2.33843,0 0,0.99995 c 0,0.73065 -0.14518,1.16874 -0.53908,1.62667 -0.47337,0.55033 -0.61677,0.5994 -1.17647,0.40256 -0.99229,-0.34897 -1.20244,-1.04336 -1.20613,-3.98543 -0.003,-2.38985 0.0421,-2.68922 0.47012,-3.11719 0.36275,-0.36275 0.63891,-0.44095 1.18125,-0.33447 0.88066,0.17291 1.27031,0.67546 1.27031,1.63841 l 0,0.7445 2.25,0 2.25,0 0,-3.375 0,-3.375 -2.23125,0 c -1.34639,0 -2.26222,0.0929 -2.30934,0.23427 -0.0486,0.14575 -0.36834,0.0895 -0.84616,-0.14889 -1.0723,-0.53493 -3.744056,-0.50351 -4.888666,0.0575 -1.66844,0.81775 -2.22161,2.31574 -2.46388,6.67216 -0.15536,2.79359 0.1719,6.19501 0.73031,7.59062 0.39346,0.98334 1.32337,1.67181 2.69158,1.99275 1.450707,0.34028 5.062496,0.28819 6.340896,-0.0915 z"
       id="path7403" />
    <path
       style="fill:#feffff;fill-opacity:1"
       d="m 141.79947,833.17917 c 1.23728,-0.73088 1.77214,-2.68803 1.38111,-5.05373 -0.12092,-0.73158 -0.22001,-0.84375 -0.74534,-0.84375 -0.51307,0 -0.6378,0.12924 -0.81431,0.84375 -0.16879,0.6833 -0.32309,0.857 -0.81138,0.91342 -0.56477,0.0653 -0.61149,10e-4 -0.73778,-1.0125 -0.24535,-1.96936 -0.37031,-2.17574 -1.55621,-2.57015 -1.06682,-0.35482 -1.07689,-0.3666 -0.44722,-0.52379 1.06427,-0.26569 2.03697,-0.98692 2.42021,-1.79453 0.71552,-1.50786 0.31056,-4.03037 -0.79659,-4.96198 -0.98716,-0.83064 -2.50263,-1.01922 -8.19053,-1.01922 l -5.27643,0 0,2.1375 0,2.1375 0.7875,0 0.7875,0 0,3.825 0,3.825 -0.7875,0 -0.7875,0 0,2.25507 0,2.25508 4.10625,-0.0613 4.10625,-0.0613 0,-2.1375 0,-2.1375 -0.84375,-0.0698 -0.84375,-0.0698 0,-1.44892 0,-1.44892 0.96244,0 c 1.65812,0 1.88533,0.32356 2.00854,2.86015 0.14353,2.95523 0.7928,4.15594 2.47605,4.57904 1.00341,0.25221 2.82719,0.0412 3.60244,-0.4167 z"
       id="path7401" />
    <path
       style="fill:#3067ba;fill-opacity:1"
       d="m 132.75,822.90797 0,-1.47628 0.79473,0 c 1.19167,0 2.31474,0.54769 2.48094,1.20988 0.24305,0.96838 -0.20749,1.29211 -2.20692,1.58574 l -1.06875,0.15695 0,-1.47629 z"
       id="path7399" />
    <path
       style="fill:#feffff;fill-opacity:1"
       d="m 24.075,833.1372 c 1.09234,-0.40467 1.9897,-1.29799 2.2812,-2.27094 0.13539,-0.45188 0.20655,-1.60608 0.15813,-2.56489 -0.0794,-1.57303 -0.14904,-1.79576 -0.7128,-2.28068 -0.34362,-0.29557 -1.02793,-0.60187 -1.52068,-0.68066 -1.01642,-0.16254 -0.97151,-0.32166 0.18241,-0.64634 0.44078,-0.12403 1.006,-0.49952 1.25604,-0.83442 0.57258,-0.76691 0.7594,-2.7625 0.3841,-4.10294 -0.62251,-2.22338 -1.89005,-2.59117 -8.94715,-2.59613 l -5.00625,-0.003 0,2.1375 0,2.1375 0.7875,0 0.7875,0 0,3.825 0,3.825 -0.7875,0 -0.7875,0 0,2.27277 0,2.27276 5.56875,-0.0991 c 3.78075,-0.0673 5.8216,-0.19281 6.35625,-0.39088 z"
       id="path7397" />
    <path
       style="fill:#3067ba;fill-opacity:1"
       d="m 18.675,827.61919 0,-1.4625 1.0125,0 c 1.51193,0 2.28092,0.91617 1.69225,2.01612 -0.24064,0.44963 -1.34005,0.90888 -2.17583,0.90888 -0.50098,0 -0.52892,-0.0773 -0.52892,-1.4625 z"
       id="path7395" />
    <path
       style="fill:#3067ba;fill-opacity:1"
       d="m 18.675,822.81131 0,-1.37962 0.73743,0 c 1.01899,0 1.73757,0.55218 1.73757,1.33521 0,0.80181 -0.41628,1.14791 -1.56618,1.30214 l -0.90882,0.1219 0,-1.37963 z"
       id="path7393" />
    <path
       style="fill:#feffff;fill-opacity:1"
       d="m 36.675,831.33169 0,-2.25 -0.9,0 -0.9,0 0,-3.825 0,-3.825 0.9,0 0.9,0 0,-2.1375 0,-2.1375 -4.1625,0 -4.1625,0 0,2.1375 0,2.1375 0.7875,0 0.7875,0 0,3.825 0,3.825 -0.7875,0 -0.7875,0 0,2.25 0,2.25 4.1625,0 4.1625,0 0,-2.25 z"
       id="path7391" />
    <path
       style="fill:#feffff;fill-opacity:1"
       d="m 45.45,831.33169 0,-2.25 -1.0125,0 -1.0125,0 0.007,-3.88125 c 0.004,-2.25116 0.0872,-3.7395 0.19822,-3.54375 0.10525,0.18562 1.33063,2.94468 2.72304,6.13125 l 2.53167,5.79375 2.67011,0 2.67012,0 0,-6.075 0,-6.075 0.7875,0 0.7875,0 0,-2.1375 0,-2.1375 -3.4875,0 -3.4875,0 0,2.1375 0,2.1375 1.0125,0 1.0125,0 -0.007,3.31875 c -0.004,1.82531 -0.0876,3.16687 -0.18623,2.98125 -0.0987,-0.18563 -1.18268,-2.64094 -2.40894,-5.45625 l -2.22958,-5.11875 -3.7717,0 -3.77171,0 0,2.1375 0,2.1375 0.7875,0 0.7875,0 0,3.825 0,3.825 -0.7875,0 -0.7875,0 0,2.25 0,2.25 3.4875,0 3.4875,0 0,-2.25 z"
       id="path7389" />
    <path
       style="fill:#feffff;fill-opacity:1"
       d="m 115.875,831.33169 0,-2.25 -0.92504,0 -0.92504,0 0.15797,-0.84204 c 0.0869,-0.46312 0.20537,-0.91875 0.26331,-1.0125 0.0579,-0.0938 0.854,-0.17046 1.769,-0.17046 l 1.66365,0 0.23432,0.84375 c 0.32762,1.17972 0.32691,1.18125 -0.55067,1.18125 l -0.7875,0 0,2.25 0,2.25 4.05,0 4.05,0 0,-2.25 0,-2.25 -0.66547,0 c -0.75394,0 -0.52104,0.60969 -2.70732,-7.0875 -0.63269,-2.2275 -1.20259,-4.22719 -1.26644,-4.44375 -0.10352,-0.35111 -0.46278,-0.39375 -3.3176,-0.39375 l -3.20151,0 -1.6582,5.9625 -1.6582,5.9625 -0.75013,0 -0.75013,0 0,2.25 0,2.25 3.4875,0 3.4875,0 0,-2.25 z"
       id="path7387" />
    <path
       style="fill:#3067ba;fill-opacity:1"
       d="m 114.975,825.14106 c 0,-0.34454 1.21782,-4.43767 1.26724,-4.25924 0.0324,0.1168 0.31024,1.14893 0.61754,2.29362 l 0.55873,2.08125 -1.22176,0 c -0.67196,0 -1.22175,-0.052 -1.22175,-0.11563 z"
       id="path7385" />
    <path
       style="fill:#feffff;fill-opacity:1"
       d="m 155.80194,833.13811 c 0.4892,-0.15279 1.21155,-0.59991 1.60523,-0.99359 1.04979,-1.04979 1.26648,-2.45147 1.17871,-7.62477 -0.0882,-5.19857 -0.26845,-5.7731 -2.09838,-6.68806 -1.09383,-0.54692 -1.27929,-0.56462 -6.69375,-0.6389 l -5.56875,-0.0764 0,2.15765 0,2.15765 0.7875,0 0.7875,0 0,3.825 0,3.825 -0.7875,0 -0.7875,0 0,2.2734 0,2.2734 5.34375,-0.10629 c 3.30906,-0.0658 5.68242,-0.21206 6.23319,-0.38409 z"
       id="path7383" />
    <path
       style="fill:#3067ba;fill-opacity:1"
       d="m 150.75,825.28803 0,-3.85634 0.87507,0 c 0.52634,0 1.08676,0.1714 1.40625,0.43011 0.5109,0.41369 0.53118,0.5464 0.53118,3.47614 0,1.87505 -0.0931,3.13919 -0.24223,3.28837 -0.13323,0.13328 -0.76604,0.30437 -1.40625,0.3802 l -1.16402,0.13786 0,-3.85634 z"
       id="path7381" />
    <path
       style="fill:#feffff;fill-opacity:1"
       d="m 93.825004,826.94419 0,-1.0125 -3.2625,0 -3.2625,0 0,1.0125 0,1.0125 3.2625,0 3.2625,0 0,-1.0125 z"
       id="path7379" />
    <path
       style="fill:#ffffff;fill-opacity:1"
       d="m 159.3,810.18169 c 0,-0.44908 -0.15,-0.45 -73.574996,-0.45 -73.425004,0 -73.575004,9.2e-4 -73.575004,0.45 0,0.44908 0.15,0.45 73.575004,0.45 73.424996,0 73.574996,-9.2e-4 73.574996,-0.45 z"
       id="path7377" />
    <path
       style="fill:#ffffff;fill-opacity:1"
       d="m 159.3,807.59419 0,-1.2375 -73.574996,0 -73.575004,0 0,1.2375 0,1.2375 73.575004,0 73.574996,0 0,-1.2375 z"
       id="path7375" />
    <path
       style="fill:#ffffff;fill-opacity:1"
       d="m 159.3,805.00669 c 0,-0.44908 -0.15,-0.45 -73.574996,-0.45 -73.425004,0 -73.575004,9.2e-4 -73.575004,0.45 0,0.44908 0.15,0.45 73.575004,0.45 73.424996,0 73.574996,-9.2e-4 73.574996,-0.45 z"
       id="path6215" />
    <rect
       style="opacity:1;fill:#000000;fill-opacity:0.00784314;fill-rule:nonzero;stroke:none;stroke-width:6.05918598;stroke-linecap:round;stroke-linejoin:round;stroke-miterlimit:4;stroke-dasharray:none;stroke-opacity:1"
       id="bingoNN"
       width="155.35715"
       height="47.142857"
       x="8.5714283"
       y="840.93378"
       ry="2.5489295"
       inkscape:label="bingoNN" />
    <rect
       style="opacity:1;fill:#000000;fill-opacity:0.00784314;fill-rule:nonzero;stroke:none;stroke-width:6.05918598;stroke-linecap:round;stroke-linejoin:round;stroke-miterlimit:4;stroke-dasharray:none;stroke-opacity:1"
       id="bingoOO"
       width="155.35715"
       height="47.142857"
       x="7.3214264"
       y="890.2193"
       ry="2.5489295"
       inkscape:label="bingoOO" />
    <rect
       style="opacity:1;fill:#000000;fill-opacity:0.00784314;fill-rule:nonzero;stroke:none;stroke-width:6.05918598;stroke-linecap:round;stroke-linejoin:round;stroke-miterlimit:4;stroke-dasharray:none;stroke-opacity:1"
       id="bingoFF"
       width="155.35715"
       height="47.142857"
       x="8.7499981"
       y="939.86218"
       ry="2.5489295"
       inkscape:label="bingoFF" />
    <rect
       style="opacity:1;fill:#000000;fill-opacity:0.00784314;fill-rule:nonzero;stroke:none;stroke-width:6.05918598;stroke-linecap:round;stroke-linejoin:round;stroke-miterlimit:4;stroke-dasharray:none;stroke-opacity:1"
       id="bingoFO"
       width="155.35715"
       height="47.142857"
       x="8.3928547"
       y="989.14789"
       ry="2.5489295"
       inkscape:label="bingoFO" />
  </g>
</svg>
