<?xml version="1.0" encoding="UTF-8" standalone="no"?>
<!-- Created with Inkscape (http://www.inkscape.org/) -->

<svg
   xmlns:dc="http://purl.org/dc/elements/1.1/"
   xmlns:cc="http://creativecommons.org/ns#"
   xmlns:rdf="http://www.w3.org/1999/02/22-rdf-syntax-ns#"
   xmlns:svg="http://www.w3.org/2000/svg"
   xmlns="http://www.w3.org/2000/svg"
   xmlns:sodipodi="http://sodipodi.sourceforge.net/DTD/sodipodi-0.dtd"
   xmlns:inkscape="http://www.inkscape.org/namespaces/inkscape"
   width="171"
   height="256"
   viewBox="0 0 171 256"
   id="svg4760"
   version="1.1"
   inkscape:version="0.91 r13725"
   sodipodi:docname="shooter-pure.svg">
  <defs
     id="defs4762" />
  <sodipodi:namedview
     id="base"
     pagecolor="#ffffff"
     bordercolor="#666666"
     borderopacity="1.0"
     inkscape:pageopacity="0.0"
     inkscape:pageshadow="2"
     inkscape:zoom="3.959798"
     inkscape:cx="75.022501"
     inkscape:cy="128.55072"
     inkscape:document-units="px"
     inkscape:current-layer="layer1"
     showgrid="false"
     units="px"
     inkscape:window-width="1857"
     inkscape:window-height="1056"
     inkscape:window-x="63"
     inkscape:window-y="24"
     inkscape:window-maximized="1" />
  <metadata
     id="metadata4765">
    <rdf:RDF>
      <cc:Work
         rdf:about="">
        <dc:format>image/svg+xml</dc:format>
        <dc:type
           rdf:resource="http://purl.org/dc/dcmitype/StillImage" />
        <dc:title></dc:title>
      </cc:Work>
    </rdf:RDF>
  </metadata>
  <g
     inkscape:label="Layer 1"
     inkscape:groupmode="layer"
     id="layer1"
     transform="translate(0,-796.36128)">
    <path
       style="fill:#94282a;fill-opacity:1;stroke:#000000;stroke-opacity:1"
       d="m 11.949405,1051.7683 c -4.2173913,-0.8712 -8.1714313,-3.8511 -9.9811613,-7.5222 -1.75097994,-3.5519 -1.59851994,7.8101 -1.59851994,-119.1307 0,-126.92329 -0.15193,-115.5798 1.59542994,-119.1244 1.3407,-2.71968 3.43169,-4.7698 6.28694,-6.16406 3.8507113,-1.88036 -3.14731,-1.724 77.1598113,-1.724 79.380625,0 73.232085,-0.11822 76.682915,1.47442 1.84427,0.85117 4.06486,2.52203 5.15134,3.87608 1.02276,1.27462 2.21174,3.53206 2.69247,5.112 0.3954,1.29949 0.41077,5.66051 0.41077,116.54996 0,110.8896 -0.0154,115.2506 -0.41077,116.5501 -1.44754,4.7573 -4.82098,8.0897 -9.93924,9.8181 l -1.575,0.5319 -72.449985,0.039 c -62.42924,0.034 -72.66784,-0.01 -74.025,-0.2863 z"
       id="path5491" />
    <path
       style="fill:#ffffff;fill-opacity:1;stroke:#000000;stroke-opacity:1"
       d="m 81.249405,1013.9905 0,-21.825 -35.4375,0 -35.4375,0 -0.058,21.6 c -0.0319,11.88 -0.01,21.7268 0.0494,21.8819 0.0856,0.2246 7.30352,0.2704 35.49552,0.225 l 35.38804,-0.057 0,-21.825 z"
       id="path5489" />
    <path
       style="fill:#000000"
       d="m 41.255655,1021.3729 c -0.36476,-0.095 -0.39375,-0.6388 -0.39375,-7.3828 l 0,-7.2798 1.24291,-0.1553 c 0.6836,-0.085 2.17704,-0.1143 3.31875,-0.064 3.52009,0.1543 5.01559,1.3953 4.82227,4.0015 -0.0819,1.1042 -0.18356,1.3089 -1.01713,2.0486 l -0.92614,0.8219 0.83592,0.5389 c 1.5738,1.0146 2.10395,3.3274 1.17852,5.1414 -0.57109,1.1194 -1.42425,1.7165 -3.06227,2.1431 -1.22301,0.3186 -5.04001,0.4374 -5.99908,0.1868 z"
       id="path5487" />
    <path
       style="fill:#fffffe;fill-opacity:1"
       d="m 46.954215,1018.3953 c 0.70275,-0.7028 0.86414,-1.6862 0.41458,-2.5262 -0.31786,-0.5939 -1.53669,-1.0911 -2.67466,-1.0911 l -0.90723,0 0,2.1375 0,2.1375 1.25481,0 c 1.08689,0 1.34282,-0.088 1.9125,-0.6577 z"
       id="path5485" />
    <path
       style="fill:#fffffe;fill-opacity:1"
       d="m 45.861525,1012.293 c 1.4588,-0.4052 1.93678,-1.6563 1.05905,-2.7722 -0.41008,-0.5213 -0.6272,-0.5928 -1.8,-0.5928 l -1.33367,0 0,1.65 c 0,0.9075 0.0675,1.7175 0.15,1.8 0.2157,0.2157 0.9603,0.1828 1.92462,-0.085 z"
       id="path5483" />
    <path
       style="fill:#ffffff;fill-opacity:1;stroke:#000000;stroke-opacity:1"
       d="m 160.33689,1013.9905 0,-21.9375 -35.4375,0 -35.437485,0 0,21.7875 c 0,11.9831 0.0675,21.855 0.15,21.9374 0.0825,0.083 16.029355,0.1501 35.437485,0.1501 l 35.2875,0 0,-21.9375 z"
       id="path5481" />
    <path
       style="fill:#000000"
       d="m 123.43689,1013.9905 0,-7.5375 1.4625,0 1.4625,0 0,7.5375 0,7.5375 -1.4625,0 -1.4625,0 0,-7.5375 z"
       id="path5479" />
    <path
       style="fill:#ffffff;fill-opacity:1;stroke:#000000;stroke-opacity:1"
       d="m 81.361905,965.278 0,-21.8251 -35.55,0 -35.55,0 0,21.8251 0,21.825 35.55,0 35.55,0 0,-21.825 z"
       id="path5477" />
    <path
       style="fill:#000000"
       d="m 45.136905,972.6289 c -1.6298,-0.3786 -2.47449,-0.8472 -3.37408,-1.8718 -1.11748,-1.2727 -1.63796,-2.6505 -1.75628,-4.649 -0.33508,-5.6601 3.61618,-9.2047 9.22771,-8.2782 0.90209,0.1489 1.73296,0.3635 1.84639,0.4769 0.12498,0.1249 0.095,0.7032 -0.0761,1.4676 -0.23003,1.0279 -0.35155,1.2346 -0.65624,1.1162 -1.96724,-0.7647 -4.44679,-0.5377 -5.7066,0.5224 -2.04614,1.7217 -2.06713,5.8359 -0.0395,7.7329 0.80168,0.75 2.40816,1.2028 3.5246,0.9933 l 0.83502,-0.1566 0,-1.5648 0,-1.5648 -1.125,0 -1.125,0 0,-1.3574 0,-1.3574 2.53125,0.064 2.53125,0.064 0.0615,3.871 0.0615,3.871 -1.14357,0.3396 c -1.65809,0.4924 -4.16861,0.6184 -5.61697,0.2819 z"
       id="path5475" />
    <path
       style="fill:#ffffff;fill-opacity:1;stroke:#000000;stroke-opacity:1"
       d="m 160.33689,965.278 0,-21.8251 -35.4375,0 -35.437485,0 0,21.8251 0,21.825 35.437485,0 35.4375,0 0,-21.825 z"
       id="path5473" />
    <path
       style="fill:#000000"
       d="m 124.51713,972.7085 c -1.42139,-0.2554 -3.20005,-1.2549 -3.92542,-2.2059 -2.30474,-3.0217 -1.99769,-8.2651 0.63134,-10.7812 0.41324,-0.3955 1.35884,-0.9984 2.10134,-1.3397 1.15247,-0.5299 1.6463,-0.6214 3.375,-0.6251 1.85715,0 3.71874,0.3637 3.70816,0.7326 -0.002,0.083 -0.1398,0.6575 -0.30537,1.2763 -0.20135,0.7524 -0.40479,1.0997 -0.61441,1.0488 -4.11312,-0.9994 -6.50026,0.089 -7.18353,3.276 -0.4573,2.1329 0.36472,4.5523 1.85452,5.4583 0.83756,0.5093 2.39201,0.7937 3.21275,0.5877 0.5363,-0.1346 0.56538,-0.2227 0.56538,-1.7126 l 0,-1.5707 -1.0125,0 -1.0125,0 0,-1.35 0,-1.35 2.48019,0 2.48019,0 -0.0614,3.9792 -0.0614,3.9792 -1.125,0.2873 c -1.55684,0.3975 -3.84608,0.5364 -5.10726,0.3098 z"
       id="path5471" />
    <path
       style="fill:#ffffff;fill-opacity:1;stroke:#000000;stroke-opacity:1"
       d="m 81.249405,915.6654 0,-21.82496 -35.4375,0 -35.4375,0 -0.058,21.59996 c -0.0319,11.88 -0.01,21.7269 0.0494,21.882 0.0856,0.2246 7.30352,0.2704 35.49552,0.225 l 35.38804,-0.057 0,-21.825 z"
       id="path5469" />
    <path
       style="fill:#000000"
       d="m 44.343265,922.9306 c -0.062,-0.1618 -0.0861,-3.5332 -0.0533,-7.4921 l 0.0595,-7.19806 1.4625,0 1.4625,0 0,7.42496 0,7.425 -1.40917,0.067 c -1.0026,0.048 -1.44171,-0.018 -1.52198,-0.2269 z"
       id="path5467" />
    <path
       style="fill:#ffffff;fill-opacity:1;stroke:#000000;stroke-opacity:1"
       d="m 160.33689,915.6654 0,-21.93746 -35.4375,0 -35.437485,0 0,21.93746 0,21.9375 35.437485,0 35.4375,0 0,-21.9375 z"
       id="path5465" />
    <path
       style="fill:#000000"
       d="m 123.43689,915.6654 0,-7.53746 1.4625,0 1.4625,0 0,7.53746 0,7.5375 -1.4625,0 -1.4625,0 0,-7.5375 z"
       id="path5463" />
    <path
       style="fill:#ffffff;fill-opacity:0.99714285;stroke:#000000;stroke-opacity:1"
       d="m 81.361905,866.50294 0,-21.825 -35.55,0 -35.55,0 0,21.825 0,21.825 35.55,0 35.55,0 0,-21.825 z"
       id="path5461" />
    <path
       style="fill:#000000"
       d="m 40.861905,866.52684 0,-7.40112 2.01581,-0.15954 c 3.73702,-0.29578 5.83295,0.27724 6.92129,1.89222 0.97933,1.45322 0.46697,3.91506 -0.94908,4.56026 -0.74103,0.33763 -0.71401,0.43849 0.26041,0.97179 1.20775,0.66101 1.69668,1.70986 1.59835,3.42883 -0.089,1.55624 -0.50492,2.30876 -1.741,3.15007 -1.13958,0.77563 -2.1262,0.95599 -5.23703,0.95735 l -2.86875,10e-4 0,-7.40112 z"
       id="path5459" />
    <path
       style="fill:#ffffff;fill-opacity:1"
       d="m 45.780585,871.53796 c 1.0778,-0.21556 1.83132,-1.03913 1.83132,-2.00156 0,-1.50197 -0.69839,-2.0674 -2.7,-2.18597 l -1.0125,-0.06 -0.0659,1.89369 c -0.0363,1.04153 -0.0141,2.02872 0.0492,2.19375 0.12469,0.32492 0.79219,0.38122 1.89795,0.16007 z"
       id="path5457" />
    <path
       style="fill:#ffffff;fill-opacity:1"
       d="m 46.862535,864.16248 c 0.63214,-0.73491 0.66914,-1.48089 0.10784,-2.17408 -0.33021,-0.40779 -0.70325,-0.53513 -1.8,-0.61446 l -1.38347,-0.10008 0,1.85491 0,1.8549 1.27563,-0.10578 c 1.03436,-0.0858 1.37479,-0.22109 1.8,-0.71541 z"
       id="path5455" />
    <path
       style="fill:#ffffff;fill-opacity:1;stroke:#000000;stroke-opacity:1"
       d="m 160.33689,866.50295 0,-21.825 -35.4375,0 -35.437485,0 0,21.825 0,21.825 35.437485,0 35.4375,0 0,-21.825 z"
       id="path5453" />
    <path
       style="fill:#000000"
       d="m 120.06189,866.52395 0,-7.404 2.13212,-0.15985 c 2.31847,-0.17383 3.78996,-0.0297 5.11655,0.50108 2.42675,0.97099 2.90248,3.95943 0.90894,5.70978 -0.61214,0.53747 -0.74732,0.76385 -0.50347,0.84312 0.18335,0.0596 0.70365,0.47641 1.15622,0.92626 1.46103,1.45221 1.41616,3.88223 -0.10141,5.49132 -1.05683,1.12057 -2.54773,1.4963 -5.93729,1.4963 l -2.77166,0 0,-7.40401 z"
       id="path5451" />
    <path
       style="fill:#fffffe;fill-opacity:1"
       d="m 125.91189,871.03493 c 0.73487,-0.54275 1.04839,-1.43422 0.77468,-2.20274 -0.3024,-0.84907 -1.15538,-1.37276 -2.51843,-1.54618 l -1.18125,-0.15028 0,2.12111 c 0,1.16661 0.0759,2.19828 0.16875,2.2926 0.27746,0.28194 2.15153,-0.0679 2.75625,-0.51451 z"
       id="path5449" />
    <path
       style="fill:#fffffe;fill-opacity:1"
       d="m 125.4458,864.59878 c 0.70859,-0.36643 0.91609,-0.75101 0.91609,-1.6979 0,-0.94442 -0.91117,-1.57292 -2.28034,-1.57292 l -1.09466,0 0,1.8 0,1.8 0.91117,0 c 0.50115,0 1.19763,-0.14813 1.54774,-0.32918 z"
       id="path5447" />
    <path
       style="fill:#ffffff;fill-opacity:1;stroke:#282aff;stroke-opacity:0"
       d="m 20.248185,834.24089 c 1.01685,-0.42486 1.69549,-1.45596 1.93768,-2.94403 0.24542,-1.50796 -0.0533,-3.60127 -0.62677,-4.39271 -0.22786,-0.31444 -1.54294,-1.12348 -2.974,-1.82961 -2.65979,-1.31242 -3.25911,-1.88323 -2.69319,-2.56512 0.58605,-0.70616 1.53577,-0.27784 1.88421,0.84977 0.10265,0.33222 0.40407,0.39375 1.92873,0.39375 l 1.80706,0 0,-2.925 0,-2.925 -1.8,0 c -1.49125,0 -1.8,0.061 -1.8,0.35585 0,0.29857 -0.12863,0.27635 -0.79903,-0.13798 -0.6623,-0.40932 -1.04607,-0.4781 -2.24273,-0.4019 -1.61343,0.10274 -2.39085,0.60891 -2.94974,1.92055 -0.37183,0.87266 -0.40731,3.50035 -0.0565,4.18452 0.54504,1.06295 1.68423,1.96847 3.33163,2.64823 2.00015,0.82531 2.71638,1.41197 2.71638,2.22495 0,0.75736 -0.38107,1.13078 -1.15393,1.13078 -0.76042,0 -1.32107,-0.53201 -1.32107,-1.25357 0,-0.53304 -0.0441,-0.54643 -1.8,-0.54643 l -1.8,0 0,3.15 0,3.15 1.8,0 c 1.60622,0 1.8,-0.0452 1.8,-0.4194 0,-0.39314 0.0658,-0.38609 1.05063,0.1125 1.19731,0.60616 2.63494,0.6902 3.76064,0.21985 z"
       id="path5445" />
    <path
       style="fill:#ffffff;fill-opacity:1;stroke:#282aff;stroke-opacity:0"
       d="m 45.214405,834.31019 c 0.47575,-0.1321 1.20888,-0.56185 1.62918,-0.95499 1.23384,-1.15411 1.50537,-2.69742 1.40918,-8.00934 -0.0754,-4.16399 -0.11057,-4.46713 -0.64157,-5.53047 -0.79887,-1.59977 -1.92203,-2.1375 -4.46461,-2.1375 -1.04223,0 -2.29127,0.11873 -2.77563,0.26385 -1.18455,0.3549 -2.10617,1.45533 -2.4116,2.87949 -0.32119,1.49765 -0.32041,9.09429 10e-4,10.59337 0.29933,1.3957 1.10947,2.36564 2.33897,2.80034 1.07396,0.3797 3.70683,0.43073 4.91499,0.0953 z"
       id="path5443" />
    <path
       style="fill:#94282a;fill-opacity:1"
       d="m 42.183205,829.45662 c -0.38896,-0.46766 -0.56288,-5.53166 -0.22079,-6.42869 0.29719,-0.77929 1.25506,-1.06563 1.78729,-0.53429 0.29749,0.297 0.39001,0.9215 0.44898,3.03076 0.0873,3.1223 -0.23117,4.30349 -1.16025,4.30349 -0.30053,0 -0.68539,-0.16707 -0.85523,-0.37127 z"
       id="path5441" />
    <path
       style="fill:#ffffff;fill-opacity:1;stroke:#282aff;stroke-opacity:0"
       d="m 57.589405,834.31019 c 0.47575,-0.1321 1.20888,-0.56185 1.62918,-0.95499 1.23866,-1.15862 1.51187,-2.71547 1.40731,-8.01913 -0.0815,-4.13323 -0.11994,-4.46285 -0.64407,-5.52068 -0.79249,-1.59943 -1.91525,-2.1375 -4.46024,-2.1375 -1.04223,0 -2.29127,0.11873 -2.77563,0.26385 -1.18455,0.3549 -2.10617,1.45533 -2.4116,2.87949 -0.32119,1.49765 -0.32041,9.09429 10e-4,10.59337 0.29932,1.3957 1.10947,2.36564 2.33897,2.80034 1.07396,0.3797 3.70683,0.43073 4.91499,0.0953 z"
       id="path5439" />
    <path
       style="fill:#94282a;fill-opacity:1"
       d="m 54.567645,829.46799 c -0.39799,-0.47854 -0.57847,-5.52692 -0.23023,-6.44007 0.2972,-0.7793 1.25507,-1.06563 1.78729,-0.53426 0.29504,0.29457 0.38994,0.91068 0.44639,2.89792 0.0872,3.07137 -0.21861,4.28858 -1.10345,4.39143 -0.34137,0.0397 -0.71325,-0.0905 -0.9,-0.31502 z"
       id="path5437" />
    <path
       style="fill:#ffffff;fill-opacity:1;stroke:#282aff;stroke-opacity:0"
       d="m 114.94929,834.31436 c 0.46745,-0.12981 1.19494,-0.53896 1.61664,-0.90923 1.13591,-0.99734 1.50269,-2.17962 1.42427,-4.59099 l -0.0658,-2.02375 -1.96875,-0.065 -1.96875,-0.065 0,1.23019 c 0,0.81835 -0.11837,1.34855 -0.35357,1.58376 -0.43384,0.43384 -1.08078,0.45664 -1.41827,0.05 -0.47063,-0.56708 -0.72004,-2.69908 -0.56558,-4.83471 0.13859,-1.91626 0.19851,-2.12199 0.68218,-2.34236 0.87565,-0.39897 1.61911,0.0879 1.7928,1.17413 l 0.14495,0.90651 1.65875,0 1.65874,0 0,-3.2625 0,-3.2625 -1.6875,0 c -1.34258,0 -1.6875,0.0683 -1.6875,0.33419 0,0.27268 -0.13458,0.25213 -0.73125,-0.11166 -1.45233,-0.8855 -4.18207,-0.43631 -5.00791,0.82407 -0.65913,1.00597 -1.00285,3.40735 -1.00693,7.03497 -0.007,5.83265 0.50654,7.45096 2.5888,8.16483 1.2714,0.43588 3.63275,0.51551 4.89469,0.16507 z"
       id="path5435" />
    <path
       style="fill:#ffffff;fill-opacity:1;stroke:#282aff;stroke-opacity:0"
       d="m 29.161905,832.07789 c 0,-1.87956 -0.0573,-2.25 -0.34778,-2.25 -0.28593,0 -0.33595,-0.2701 -0.28125,-1.51875 l 0.0665,-1.51875 1.06875,-0.0686 1.06875,-0.0686 0,1.58733 c 0,0.90822 -0.0963,1.58732 -0.225,1.58732 -0.135,0 -0.225,0.9 -0.225,2.25 l 0,2.25 2.925,0 2.925,0 0,-2.25 0,-2.25 -0.675,0 -0.675,0 0,-3.825 0,-3.825 0.675,0 0.675,0 0,-2.1375 0,-2.1375 -2.925,0 -2.925,0 0,2.1375 c 0,1.27501 0.0908,2.1375 0.225,2.1375 0.125,0 0.225,0.60001 0.225,1.35 l 0,1.35 -1.125,0 -1.125,0 0,-1.35 c 0,-1.05 0.075,-1.35 0.3375,-1.35 0.27632,0 0.3375,-0.38749 0.3375,-2.1375 l 0,-2.1375 -2.925,0 -2.925,0 0,2.1375 0,2.1375 0.675,0 0.675,0 0,3.825 0,3.825 -0.675,0 -0.675,0 0,2.25 0,2.25 2.925,0 2.925,0 0,-2.25 z"
       id="path5433" />
    <path
       style="fill:#ffffff;fill-opacity:1;stroke:#282aff;stroke-opacity:0"
       d="m 71.011905,832.07789 c 0,-2.25 0,-2.25 -0.5625,-2.25 l -0.5625,0 0,-3.825 0,-3.825 0.7875,0 0.7875,0 0,1.4625 0,1.4625 1.2375,0 1.2375,0 0,-3.6 0,-3.6 -6.075,0 -6.075,0 0,3.6 0,3.6 1.2375,0 1.2375,0 0,-1.4625 0,-1.4625 0.7875,0 0.7875,0 0,3.825 0,3.825 -0.675,0 -0.675,0 0,2.25 0,2.25 3.2625,0 3.2625,0 0,-2.25 z"
       id="path5431" />
    <path
       style="fill:#ffffff;fill-opacity:1;stroke:#282aff;stroke-opacity:0"
       d="m 86.086905,830.83092 0,-3.49696 -1.74375,0.0657 -1.74375,0.0657 -0.068,1.18125 -0.068,1.18125 -1.22574,0 -1.22574,0 0,-1.575 0,-1.575 1.70108,0 1.70108,0 -0.0698,-0.84375 -0.0698,-0.84375 -1.63125,-0.0661 -1.63125,-0.0661 0,-1.34014 0,-1.34015 1.2375,0 1.2375,0 0,1.125 0,1.125 1.6875,0 1.6875,0 0,-3.2625 0,-3.2625 -5.5125,0 -5.5125,0 0,2.1375 0,2.1375 0.675,0 0.675,0 0,3.825 0,3.825 -0.675,0 -0.675,0 0,2.25 0,2.25 5.625,0 5.625,0 0,-3.49696 z"
       id="path5429" />
    <path
       style="fill:#ffffff;fill-opacity:1;stroke:#282aff;stroke-opacity:0"
       d="m 94.186905,832.07789 0,-2.25 -0.675,0 -0.675,0 0,-1.5852 0,-1.58519 0.84375,0.15119 c 1.42496,0.25534 1.63108,0.59124 1.63251,2.66032 0.002,2.25956 0.30644,3.40119 1.12765,4.2224 0.5427,0.5427 0.81689,0.63648 1.86094,0.63648 2.109405,0 3.087815,-1.22982 3.082065,-3.87402 -0.004,-1.81237 -0.17444,-2.42598 -0.6741,-2.42598 -0.41641,0 -0.67283,0.42526 -0.67283,1.11585 0,0.52445 -0.622202,1.05194 -0.906032,0.76811 -0.11658,-0.11658 -0.300216,-0.85731 -0.408086,-1.64606 -0.21004,-1.53584 -0.535207,-1.96085 -1.679357,-2.19495 l -0.631,-0.1291 0.856,-0.38974 c 0.47079,-0.21436 1.10912,-0.66439 1.418487,-1.00006 0.511616,-0.5551 0.562496,-0.79036 0.562496,-2.60068 0,-3.58408 -0.814693,-4.02337 -7.489683,-4.03852 l -4.33969,-0.01 0.0647,2.08125 0.0647,2.08125 0.61875,0.0712 0.61875,0.0712 0,3.79511 0,3.79511 -0.61875,0.0712 c -0.61428,0.0707 -0.61923,0.0849 -0.68471,1.96489 -0.0363,1.04153 -0.0141,2.02871 0.0492,2.19375 0.0887,0.23102 0.86732,0.30005 3.38471,0.30005 l 3.26956,0 0,-2.25 z"
       id="path5427" />
    <path
       style="fill:#94282a;fill-opacity:1"
       d="m 92.836905,823.63988 0,-1.52051 1.01238,0.1141 c 1.28604,0.14496 1.68762,0.48442 1.68762,1.42655 0,0.85835 -0.34866,1.12439 -1.77182,1.35196 l -0.92818,0.14842 0,-1.52052 z"
       id="path5425" />
    <path
       style="fill:#ffffff;fill-opacity:1;stroke:#282aff;stroke-opacity:0"
       d="m 124.33689,832.07789 0,-2.25 -0.675,0 c -0.71926,0 -0.77244,-0.13156 -0.53437,-1.32188 0.13966,-0.69832 0.15032,-0.70312 1.55983,-0.70312 1.51464,0 1.44518,-0.0552 1.77041,1.40625 0.12658,0.56877 0.0828,0.61875 -0.54158,0.61875 l -0.67929,0 0,2.25 0,2.25 3.2625,0 3.2625,0 0,-2.25 c 0,-2.22863 -0.005,-2.25 -0.54315,-2.25 -0.58538,0 -0.58275,0.009 -2.71816,-9.28125 l -0.60768,-2.64375 -2.55035,0 c -2.23616,0 -2.56415,0.0485 -2.66249,0.39375 -0.0617,0.21656 -0.6301,2.7225 -1.26313,5.56875 -1.42743,6.41803 -1.26337,5.92162 -1.98454,6.00484 -0.60088,0.0693 -0.60877,0.0923 -0.67395,1.96385 -0.0363,1.04153 -0.0142,2.02872 0.0492,2.19375 0.0871,0.22707 0.77362,0.30006 2.82221,0.30006 l 2.70706,0 0,-2.25 z"
       id="path5423" />
    <path
       style="fill:#94282a;fill-opacity:1"
       d="m 123.74609,825.60914 c 0.063,-0.21656 0.28949,-1.22876 0.50333,-2.24933 0.21385,-1.02056 0.43037,-1.81403 0.48115,-1.76324 0.0948,0.0947 0.95632,3.90219 0.95632,4.22617 0,0.0991 -0.46245,0.18015 -1.02766,0.18015 -0.87235,0 -1.01036,-0.0595 -0.91314,-0.39375 z"
       id="path5421" />
    <path
       style="fill:#ffffff;fill-opacity:1;stroke:#282aff;stroke-opacity:0"
       d="m 139.41189,832.07789 0,-2.25 -0.675,0 -0.675,0 0,-1.5852 0,-1.58519 0.84375,0.15231 c 1.55882,0.28139 1.63125,0.38029 1.63125,2.22742 0,2.35586 0.37689,3.90216 1.13615,4.66143 0.52533,0.52532 0.81971,0.62923 1.78272,0.62923 2.39958,0 3.21907,-1.1272 3.10985,-4.27758 -0.0606,-1.74799 -0.10655,-1.91568 -0.54185,-1.97781 -0.39667,-0.0566 -0.49918,0.0794 -0.61749,0.81919 -0.14041,0.87811 -0.52548,1.25768 -0.9857,0.97163 -0.1309,-0.0814 -0.31101,-0.75543 -0.40023,-1.49793 -0.19009,-1.58183 -0.54646,-2.07231 -1.65809,-2.28211 -0.44707,-0.0844 -0.66099,-0.19991 -0.47536,-0.25674 2.0122,-0.61605 2.70015,-1.58127 2.69965,-3.78771 -4.5e-4,-1.87362 -0.46218,-2.91928 -1.57465,-3.56579 -0.70932,-0.41222 -1.25097,-0.46519 -5.45625,-0.53356 l -4.66875,-0.0759 0,2.15716 0,2.15716 0.675,0 0.675,0 0,3.825 0,3.825 -0.675,0 -0.675,0 0,2.25 0,2.25 3.2625,0 3.2625,0 0,-2.25 z"
       id="path5419" />
    <path
       style="fill:#94282a;fill-opacity:1"
       d="m 138.06189,823.64039 0,-1.4625 0.66035,0 c 1.45827,0 2.45377,0.84968 2.14293,1.82904 -0.16258,0.51224 -1.35218,1.09596 -2.23355,1.09596 -0.55121,0 -0.56973,-0.0476 -0.56973,-1.4625 z"
       id="path5417" />
    <path
       style="fill:#ffffff;fill-opacity:1;stroke:#282aff;stroke-opacity:0"
       d="m 156.54037,833.90268 c 1.04153,-0.32626 1.8373,-1.12425 2.20218,-2.20834 0.42485,-1.26224 0.58867,-8.15004 0.24264,-10.20155 -0.52181,-3.09359 -1.59629,-3.5899 -7.77187,-3.5899 l -3.70143,0 0,2.1375 0,2.1375 0.675,0 0.675,0 0,3.825 0,3.825 -0.675,0 -0.675,0 0,2.27467 0,2.27467 4.10625,-0.10947 c 2.25844,-0.0602 4.47344,-0.22449 4.92223,-0.36508 z"
       id="path5415" />
    <path
       style="fill:#94282a;fill-opacity:1"
       d="m 152.68689,826.00289 0,-3.825 0.7445,0 c 1.50766,0 1.61735,0.25932 1.61769,3.82445 3.5e-4,3.56536 -0.10968,3.82555 -1.61769,3.82555 l -0.7445,0 0,-3.825 z"
       id="path5413" />
    <path
       style="fill:#ffffff;fill-opacity:1;stroke:#282aff;stroke-opacity:0"
       d="m 106.56189,827.69039 0,-1.0125 -2.5875,0 -2.5875,0 0,0.8625 c 0,0.47437 0.0675,0.93 0.15,1.0125 0.0825,0.0825 1.24687,0.15 2.5875,0.15 l 2.4375,0 0,-1.0125 z"
       id="path5411" />
    <path
       style="fill:#ffffff;fill-opacity:1"
       d="m 158.98689,810.92789 c 0,-0.44908 -0.15,-0.45 -73.462485,-0.45 -73.3125,0 -73.4625,9.2e-4 -73.4625,0.45 0,0.44908 0.15,0.45 73.4625,0.45 73.312485,0 73.462485,-9.2e-4 73.462485,-0.45 z"
       id="path5409" />
    <path
       style="fill:#ffffff;fill-opacity:1"
       d="m 158.98689,808.34039 0,-1.2375 -73.462485,0 -73.4625,0 0,1.2375 0,1.2375 73.4625,0 73.462485,0 0,-1.2375 z"
       id="path5407" />
    <path
       style="fill:#ffffff;fill-opacity:1"
       d="m 158.98689,805.75289 c 0,-0.44908 -0.15,-0.45 -73.462485,-0.45 -73.3125,0 -73.4625,9.2e-4 -73.4625,0.45 0,0.44908 0.15,0.45 73.4625,0.45 73.312485,0 73.462485,-9.2e-4 73.462485,-0.45 z"
       id="path4749" />
    <rect
       style="opacity:1;fill:#000201;fill-opacity:0.00392157;fill-rule:nonzero;stroke:none;stroke-width:6.05918598;stroke-linecap:round;stroke-linejoin:round;stroke-miterlimit:4;stroke-dasharray:none;stroke-opacity:1"
       id="shooterBB"
       width="154.80588"
       height="47.982246"
       x="7.8489881"
       y="842.26996"
       ry="2.6840999"
       inkscape:label="shooterBB" />
    <rect
       style="opacity:1;fill:#000201;fill-opacity:0.00392157;fill-rule:nonzero;stroke:none;stroke-width:6.05918598;stroke-linecap:round;stroke-linejoin:round;stroke-miterlimit:4;stroke-dasharray:none;stroke-opacity:1"
       id="shooterII"
       width="154.80588"
       height="47.982246"
       x="7.7024131"
       y="891.24194"
       ry="2.6840999"
       inkscape:label="shooterII" />
    <rect
       style="opacity:1;fill:#000201;fill-opacity:0.00392157;fill-rule:nonzero;stroke:none;stroke-width:6.05918598;stroke-linecap:round;stroke-linejoin:round;stroke-miterlimit:4;stroke-dasharray:none;stroke-opacity:1"
       id="shooterGG"
       width="154.80588"
       height="47.982246"
       x="7.7024131"
       y="941.24451"
       ry="2.6840999"
       inkscape:label="shooterGG" />
    <rect
       style="opacity:1;fill:#000201;fill-opacity:0.00392157;fill-rule:nonzero;stroke:none;stroke-width:6.05918598;stroke-linecap:round;stroke-linejoin:round;stroke-miterlimit:4;stroke-dasharray:none;stroke-opacity:1"
       id="shooterBI"
       width="154.80588"
       height="47.982246"
       x="7.7024131"
       y="989.98431"
       ry="2.6840999"
       inkscape:label="shooterBI" />
  </g>
</svg>
